<svg width="32" height="32" viewBox="0 0 32 32" fill="none" xmlns="http://www.w3.org/2000/svg">
<g clip-path="url(#clip0_44_8)">
<rect x="-4.229" y="-4.22876" width="38.1223" height="40.5207" fill="#2E2B26"/>
<path d="M11.9958 8.04296C11.5353 8.82271 3.05756 24.0565 3.0314 24.1454L3 24.2815H8.29074C11.2004 24.2815 13.5815 24.2658 13.5815 24.2396C13.5815 24.2187 13.2413 23.5802 12.8279 22.8162L12.0796 21.4294L10.5358 21.4032L8.99721 21.3771L10.2165 19.0745C11.5615 16.5469 11.933 15.8299 11.9801 15.6782C12.0115 15.5892 12.0272 15.584 12.0848 15.652C12.1267 15.6939 13.2099 17.6197 14.4973 19.938C15.7899 22.2563 16.8679 24.1821 16.8993 24.2187C16.9464 24.2658 17.4383 24.2815 19.1443 24.271L21.3213 24.2553L17.5901 17.6092C12.1371 7.89643 12.111 7.84934 11.9958 8.04296Z" fill="#EFEBE0"/>
<path d="M15.5545 8.33095C15.6121 8.42514 16.0046 9.13162 16.4284 9.9009L17.203 11.3034H20.547C23.8072 11.3034 23.8909 11.3034 24.0636 11.4081C24.566 11.7063 24.8486 12.5855 24.6602 13.2449C24.5556 13.5903 24.3044 13.9828 24.0846 14.1398C23.9171 14.2601 23.9066 14.2601 21.4209 14.2863L18.9247 14.3125L20.908 17.8396C21.9965 19.7811 22.8809 21.3877 22.8652 21.4086C22.8548 21.4296 22.8862 21.4924 22.9437 21.5447C22.9961 21.597 23.3153 22.1308 23.6555 22.7379C23.9904 23.3397 24.341 23.9467 24.43 24.0828L24.5974 24.334H26.6279C28.0199 24.334 28.6531 24.3183 28.6531 24.2764C28.6531 24.2503 28.3339 23.6432 27.9362 22.9315C27.5437 22.2198 27.1512 21.5081 27.0675 21.3511C26.9785 21.1941 26.5337 20.3829 26.0784 19.5561C25.1835 17.9338 24.9376 17.4681 24.9376 17.3948C24.9376 17.3686 25.0893 17.3058 25.283 17.2535C26.3034 16.9866 27.3867 16.1964 28.0147 15.2597C28.8782 13.9671 29.0404 12.35 28.4438 10.9161C27.9833 9.81717 26.9838 8.82287 25.8429 8.32571L25.4714 8.16349H20.4632H15.4551L15.5545 8.33095Z" fill="#EFEBE0"/>
</g>
<defs>
<clipPath id="clip0_44_8">
<rect width="32" height="32" fill="white"/>
</clipPath>
</defs>
</svg>
